<svg width="1116" height="536" xmlns="http://www.w3.org/2000/svg" xmlns:xlink="http://www.w3.org/1999/xlink" xml:space="preserve" overflow="hidden"><defs><clipPath id="clip0"><rect x="520" y="461" width="1116" height="536"/></clipPath><clipPath id="clip1"><rect x="520" y="460" width="536" height="537"/></clipPath><clipPath id="clip2"><rect x="520" y="460" width="536" height="537"/></clipPath><clipPath id="clip3"><rect x="520" y="460" width="536" height="537"/></clipPath><linearGradient x1="1236.83" y1="745.25" x2="1236.83" y2="899.25" gradientUnits="userSpaceOnUse" spreadMethod="reflect" id="fill4"><stop offset="0" stop-color="#53575C"/><stop offset="0.21" stop-color="#53575C"/><stop offset="0.88" stop-color="#C5C7CA"/><stop offset="1" stop-color="#C5C7CA"/></linearGradient></defs><g clip-path="url(#clip0)" transform="translate(-520 -461)"><g clip-path="url(#clip1)"><g clip-path="url(#clip2)"><g clip-path="url(#clip3)"><path d="M634.143 690.198C634.143 708.818 619.049 723.912 600.429 723.912 581.809 723.912 566.714 708.818 566.714 690.198 566.714 671.578 581.809 656.483 600.429 656.483 619.049 656.483 634.143 671.578 634.143 690.198Z" fill="#030104"/><path d="M680.858 690.198C680.858 645.853 644.774 609.769 600.429 609.769 556.114 609.769 520 645.853 520 690.198 520 734.543 556.084 770.627 600.429 770.627 644.774 770.627 680.858 734.543 680.858 690.198ZM600.429 751.583C566.593 751.583 539.044 724.064 539.044 690.198 539.044 656.331 566.593 628.813 600.429 628.813 634.295 628.813 661.814 656.331 661.814 690.198 661.814 724.064 634.265 751.583 600.429 751.583Z" fill="#030104"/><path d="M691.762 741.073C687.874 751.856 681.708 762.001 673.113 770.627 663.818 779.891 652.823 786.299 641.16 790.096L729.121 878.118 712.112 878.118 712.112 939.928 877.192 939.928 877.192 878.118 828.716 878.118 691.762 741.073Z" fill="#030104"/><path d="M1053.72 603.33C1050.56 600.171 1045.49 600.08 1042.3 603.208L968.859 675.011 914.794 646.642 900.61 584.863 936.815 535.719 1034.19 568.309C1035.68 568.795 1037.2 568.856 1038.63 568.522 1041.27 567.914 1043.55 566.001 1044.43 563.207 1045.92 558.985 1043.61 554.368 1039.39 552.971L936.389 518.497C933.048 517.343 929.404 518.527 927.338 521.352L894.383 566.001 867.199 572.227 871.026 588.872 680.797 632.549C687.844 641.57 693.159 652.17 695.893 664.077 698.808 676.834 698.474 689.56 695.467 701.497L886.759 657.546 890.586 674.191 919.532 667.539 919.471 667.418 966.49 692.111C968.282 693.023 970.256 693.266 972.078 692.81 973.506 692.476 974.873 691.777 975.905 690.714L1053.54 614.75C1056.76 611.652 1056.82 606.519 1053.72 603.33Z" fill="#030104"/></g></g></g><path d="M1018.86 836.948C1014.78 838.615 1008.66 840.031 1000.49 841.198 995.864 841.865 992.593 842.615 990.676 843.448 988.76 844.281 987.281 845.5 986.239 847.104 985.197 848.708 984.676 850.49 984.676 852.448 984.676 855.448 985.812 857.948 988.083 859.948 990.354 861.948 993.676 862.948 998.051 862.948 1002.38 862.948 1006.24 862 1009.61 860.104 1012.99 858.208 1015.47 855.615 1017.05 852.323 1018.26 849.781 1018.86 846.031 1018.86 841.073ZM1518.43 811.698C1512.8 811.698 1508.13 813.802 1504.43 818.01 1500.72 822.219 1498.86 828.573 1498.86 837.073 1498.86 845.573 1500.72 851.937 1504.43 856.167 1508.13 860.396 1512.8 862.51 1518.43 862.51 1524.01 862.51 1528.66 860.385 1532.36 856.135 1536.07 851.885 1537.93 845.406 1537.93 836.698 1537.93 828.49 1536.06 822.271 1532.33 818.042 1528.6 813.812 1523.97 811.698 1518.43 811.698ZM1375.43 811.698C1369.8 811.698 1365.13 813.802 1361.43 818.01 1357.72 822.219 1355.86 828.573 1355.86 837.073 1355.86 845.573 1357.72 851.937 1361.43 856.167 1365.13 860.396 1369.8 862.51 1375.43 862.51 1381.01 862.51 1385.66 860.385 1389.36 856.135 1393.07 851.885 1394.93 845.406 1394.93 836.698 1394.93 828.49 1393.06 822.271 1389.33 818.042 1385.6 813.812 1380.97 811.698 1375.43 811.698ZM1145.55 811.698C1140.55 811.698 1136.37 813.74 1133.02 817.823 1129.67 821.906 1127.99 828.344 1127.99 837.135 1127.99 845.635 1129.78 851.99 1133.36 856.198 1136.95 860.406 1141.18 862.51 1146.05 862.51 1150.97 862.51 1155.15 860.5 1158.58 856.479 1162.02 852.458 1163.74 846.323 1163.74 838.073 1163.74 828.99 1161.99 822.323 1158.49 818.073 1154.99 813.823 1150.68 811.698 1145.55 811.698ZM1073.55 811.698C1068.55 811.698 1064.37 813.74 1061.02 817.823 1057.67 821.906 1055.99 828.344 1055.99 837.135 1055.99 845.635 1057.78 851.99 1061.36 856.198 1064.95 860.406 1069.18 862.51 1074.05 862.51 1078.97 862.51 1083.15 860.5 1086.58 856.479 1090.02 852.458 1091.74 846.323 1091.74 838.073 1091.74 828.99 1089.99 822.323 1086.49 818.073 1082.99 813.823 1078.68 811.698 1073.55 811.698ZM1448.86 811.635C1443.95 811.635 1439.7 813.771 1436.11 818.042 1432.53 822.312 1430.74 828.49 1430.74 836.573 1430.74 844.531 1431.82 850.281 1433.99 853.823 1437.53 859.615 1442.32 862.51 1448.36 862.51 1453.28 862.51 1457.53 860.375 1461.11 856.104 1464.7 851.833 1466.49 845.469 1466.49 837.01 1466.49 828.344 1464.77 821.948 1461.33 817.823 1457.9 813.698 1453.74 811.635 1448.86 811.635ZM1185.11 803.885 1197.24 803.885 1211.05 842.323C1212.84 847.198 1214.45 852.323 1215.86 857.698 1217.16 852.531 1218.7 847.49 1220.49 842.573L1234.68 803.885 1245.93 803.885 1220.68 871.385C1217.97 878.677 1215.86 883.698 1214.36 886.448 1212.36 890.156 1210.07 892.875 1207.49 894.604 1204.91 896.333 1201.82 897.198 1198.24 897.198 1196.07 897.198 1193.66 896.74 1190.99 895.823L1189.74 885.26C1192.2 885.927 1194.34 886.26 1196.18 886.26 1198.68 886.26 1200.68 885.844 1202.18 885.01 1203.68 884.177 1204.91 883.01 1205.86 881.51 1206.57 880.385 1207.72 877.594 1209.3 873.135 1209.51 872.51 1209.84 871.594 1210.3 870.385ZM1518.43 802.385C1527.55 802.385 1535.01 805.375 1540.8 811.354 1546.59 817.333 1549.49 825.594 1549.49 836.135 1549.49 844.677 1548.21 851.396 1545.65 856.292 1543.08 861.187 1539.35 864.99 1534.46 867.698 1529.56 870.406 1524.22 871.76 1518.43 871.76 1509.13 871.76 1501.62 868.781 1495.9 862.823 1490.17 856.865 1487.3 848.281 1487.3 837.073 1487.3 824.781 1490.72 815.677 1497.55 809.76 1503.26 804.844 1510.22 802.385 1518.43 802.385ZM1375.43 802.385C1384.55 802.385 1392.01 805.375 1397.8 811.354 1403.59 817.333 1406.49 825.594 1406.49 836.135 1406.49 844.677 1405.21 851.396 1402.65 856.292 1400.08 861.187 1396.35 864.99 1391.46 867.698 1386.56 870.406 1381.22 871.76 1375.43 871.76 1366.13 871.76 1358.62 868.781 1352.9 862.823 1347.17 856.865 1344.3 848.281 1344.3 837.073 1344.3 824.781 1347.72 815.677 1354.55 809.76 1360.26 804.844 1367.22 802.385 1375.43 802.385ZM1004.55 802.385C1010.22 802.385 1014.82 803.052 1018.36 804.385 1021.91 805.719 1024.51 807.396 1026.18 809.417 1027.84 811.437 1029.01 813.99 1029.68 817.073 1030.05 818.99 1030.24 822.448 1030.24 827.448L1030.24 842.448C1030.24 852.906 1030.48 859.521 1030.96 862.292 1031.44 865.062 1032.38 867.719 1033.8 870.26L1022.05 870.26C1020.88 867.927 1020.13 865.198 1019.8 862.073 1015.63 865.615 1011.62 868.115 1007.77 869.573 1003.92 871.031 999.781 871.76 995.364 871.76 988.072 871.76 982.468 869.979 978.551 866.417 974.635 862.854 972.676 858.302 972.676 852.76 972.676 849.51 973.416 846.542 974.895 843.854 976.374 841.167 978.312 839.01 980.708 837.385 983.104 835.76 985.801 834.531 988.801 833.698 991.01 833.115 994.343 832.552 998.801 832.01 1007.88 830.927 1014.57 829.635 1018.86 828.135 1018.91 826.594 1018.93 825.615 1018.93 825.198 1018.93 820.615 1017.86 817.385 1015.74 815.51 1012.86 812.969 1008.59 811.698 1002.93 811.698 997.635 811.698 993.729 812.625 991.208 814.479 988.687 816.333 986.822 819.615 985.614 824.323L974.614 822.823C975.614 818.115 977.26 814.312 979.551 811.417 981.843 808.521 985.156 806.292 989.489 804.729 993.822 803.167 998.843 802.385 1004.55 802.385ZM905.051 789.448 905.051 822.198 928.739 822.198C936.572 822.198 942.135 820.74 945.426 817.823 948.718 814.906 950.364 810.802 950.364 805.51 950.364 801.677 949.395 798.396 947.458 795.667 945.52 792.937 942.968 791.135 939.801 790.26 937.76 789.719 933.989 789.448 928.489 789.448ZM1269.24 788.76 1269.24 819.073 1295.3 819.073C1300.84 819.073 1305.18 818.5 1308.3 817.354 1311.43 816.208 1313.8 814.375 1315.43 811.854 1317.05 809.333 1317.86 806.594 1317.86 803.635 1317.86 799.302 1316.29 795.74 1313.15 792.948 1310 790.156 1305.03 788.76 1298.24 788.76ZM1576.74 780.698 1576.74 803.885 1588.05 803.885 1588.05 812.635 1576.74 812.635 1576.74 851.448C1576.74 854.656 1576.94 856.719 1577.33 857.635 1577.73 858.552 1578.37 859.281 1579.27 859.823 1580.17 860.365 1581.45 860.635 1583.11 860.635 1584.36 860.635 1586.01 860.49 1588.05 860.198L1589.68 870.135C1586.51 870.802 1583.68 871.135 1581.18 871.135 1577.09 871.135 1573.93 870.49 1571.68 869.198 1569.43 867.906 1567.84 866.208 1566.93 864.104 1566.01 862 1565.55 857.573 1565.55 850.823L1565.55 812.635 1557.3 812.635 1557.3 803.885 1565.55 803.885 1565.55 787.448ZM1420.43 778.635 1431.68 778.635 1431.68 811.323C1436.43 805.365 1442.49 802.385 1449.86 802.385 1453.95 802.385 1457.81 803.208 1461.46 804.854 1465.1 806.5 1468.1 808.812 1470.46 811.792 1472.81 814.771 1474.66 818.365 1475.99 822.573 1477.32 826.781 1477.99 831.281 1477.99 836.073 1477.99 847.448 1475.18 856.24 1469.55 862.448 1463.93 868.656 1457.18 871.76 1449.3 871.76 1441.47 871.76 1435.32 868.49 1430.86 861.948L1430.86 870.26 1420.43 870.26ZM1257.11 778.635 1297.74 778.635C1305.91 778.635 1312.11 779.458 1316.36 781.104 1320.61 782.75 1324.01 785.656 1326.55 789.823 1329.09 793.99 1330.36 798.594 1330.36 803.635 1330.36 810.135 1328.26 815.615 1324.05 820.073 1319.84 824.531 1313.34 827.365 1304.55 828.573 1307.76 830.115 1310.2 831.635 1311.86 833.135 1315.41 836.385 1318.76 840.448 1321.93 845.323L1337.86 870.26 1322.61 870.26 1310.49 851.198C1306.95 845.698 1304.03 841.49 1301.74 838.573 1299.45 835.656 1297.4 833.615 1295.58 832.448 1293.77 831.281 1291.93 830.469 1290.05 830.01 1288.68 829.719 1286.43 829.573 1283.3 829.573L1269.24 829.573 1269.24 870.26 1257.11 870.26ZM1162.8 778.635 1173.99 778.635 1173.99 870.26 1163.55 870.26 1163.55 861.885C1159.34 868.469 1153.16 871.76 1144.99 871.76 1139.7 871.76 1134.83 870.302 1130.4 867.385 1125.96 864.469 1122.52 860.396 1120.08 855.167 1117.65 849.937 1116.43 843.927 1116.43 837.135 1116.43 830.51 1117.53 824.5 1119.74 819.104 1121.95 813.708 1125.26 809.573 1129.68 806.698 1134.09 803.823 1139.03 802.385 1144.49 802.385 1148.49 802.385 1152.05 803.229 1155.18 804.917 1158.3 806.604 1160.84 808.802 1162.8 811.51ZM1090.8 778.635 1101.99 778.635 1101.99 870.26 1091.55 870.26 1091.55 861.885C1087.34 868.469 1081.16 871.76 1072.99 871.76 1067.7 871.76 1062.83 870.302 1058.4 867.385 1053.96 864.469 1050.52 860.396 1048.08 855.167 1045.65 849.937 1044.43 843.927 1044.43 837.135 1044.43 830.51 1045.53 824.5 1047.74 819.104 1049.95 813.708 1053.26 809.573 1057.68 806.698 1062.09 803.823 1067.03 802.385 1072.49 802.385 1076.49 802.385 1080.05 803.229 1083.18 804.917 1086.3 806.604 1088.84 808.802 1090.8 811.51ZM892.926 778.635 927.489 778.635C933.572 778.635 938.218 778.927 941.426 779.51 945.926 780.26 949.697 781.687 952.739 783.792 955.781 785.896 958.229 788.844 960.083 792.635 961.937 796.427 962.864 800.594 962.864 805.135 962.864 812.927 960.385 819.521 955.426 824.917 950.468 830.312 941.51 833.01 928.551 833.01L905.051 833.01 905.051 870.26 892.926 870.26Z" fill="url(#fill4)" fill-rule="evenodd"/><text fill="#000000" fill-opacity="0" font-family="Arial,Arial_MSFontService,sans-serif" font-size="118.562" x="892.926" y="882.378">PaddyRobot</text></g></svg>